<svg xmlns="http://www.w3.org/2000/svg">
  <symbol id="icon-antenna" viewBox="0 0 64 64">
    <circle cx="32" cy="19" r="6" />
    <path
      d="M32 25v23M24 56h16M16 17a23 23 0 0 1 32 0M22 23a14 14 0 0 1 20 0"
    />
  </symbol>

  <symbol id="icon-clock" viewBox="0 0 64 64">
    <circle cx="32" cy="32" r="20" />
    <path d="M32 21v12h10M32 12v-4M32 56v-4M52 32h4M8 32h4" />
  </symbol>

  <symbol id="icon-diagram" viewBox="0 0 64 64">
    <path d="M14 48h36M20 48V30M32 48V20M44 48V26M20 25l12-8 12 5" />
    <circle cx="20" cy="25" r="2" />
    <circle cx="32" cy="17" r="2" />
    <circle cx="44" cy="22" r="2" />
  </symbol>

  <symbol id="icon-astronaut" viewBox="0 0 64 64">
    <circle cx="32" cy="22" r="12" />
    <path d="M20 40h24v14H20zM24 22h16M22 54h20M32 34v6" />
  </symbol>

  <symbol id="icon-instagram" viewBox="0 0 24 24">
    <rect x="3" y="3" width="18" height="18" rx="5" />
    <circle cx="12" cy="12" r="4" />
    <circle cx="17.5" cy="6.5" r="0.8" />
  </symbol>

  <symbol id="icon-twitter" viewBox="0 0 24 24">
    <path
      d="M21 6.5c-.6.3-1.2.5-1.9.6.7-.4 1.2-1 1.5-1.8-.7.4-1.4.7-2.2.9a3.5 3.5 0 0 0-6 3.2A10 10 0 0 1 5 5.8a3.5 3.5 0 0 0 1.1 4.6c-.5 0-1-.2-1.5-.4 0 1.6 1.1 3 2.7 3.4-.5.1-1 .2-1.5.1.4 1.4 1.8 2.4 3.3 2.5A7 7 0 0 1 4 17.4a10 10 0 0 0 15.4-8.7V8c.6-.4 1.2-.9 1.6-1.5z"
    />
  </symbol>

  <symbol id="icon-facebook" viewBox="0 0 24 24">
    <path
      d="M14 8h2V5h-2a4 4 0 0 0-4 4v3H8v3h2v4h3v-4h2.5l.5-3H13V9a1 1 0 0 1 1-1z"
    />
  </symbol>

  <symbol id="icon-linkedin" viewBox="0 0 24 24">
    <circle cx="6" cy="6" r="1" />
    <path
      d="M5 9h2v10H5zM10 9h3v1.5c.6-1 1.5-1.7 2.8-1.7 2.1 0 3.2 1.4 3.2 3.9V19h-3v-4.6c0-1.1-.4-1.9-1.4-1.9-1 0-1.6.7-1.8 1.3-.1.2-.1.5-.1.8V19h-3z"
    />
  </symbol>

  <symbol id="icon-send" viewBox="0 0 24 24">
    <path
      d="M2 12 21 3l-4 9 4 9-19-9Zm15 0H8"
      fill="none"
      stroke="currentColor"
      stroke-width="2"
      stroke-linecap="round"
      stroke-linejoin="round"
    />
  </symbol>

  <symbol id="icon-close" viewBox="0 0 8 8">
    <path
      d="M1 1 7 7M7 1 1 7"
      fill="none"
      stroke="currentColor"
      stroke-width="1.5"
      stroke-linecap="round"
    />
  </symbol>

  <symbol id="icon-person" viewBox="0 0 18 24">
    <path
      d="M9 11a4 4 0 1 0 0-8 4 4 0 0 0 0 8Zm0 2c-3.31 0-6 2.69-6 6v1h12v-1c0-3.31-2.69-6-6-6Z"
      fill="currentColor"
    />
  </symbol>

  <symbol id="icon-phone" viewBox="0 0 18 24">
    <path
      d="M14.92 16.09 12.8 18.2a1.8 1.8 0 0 1-1.6.5c-4.24-.76-7.64-4.17-8.4-8.4a1.8 1.8 0 0 1 .5-1.6l2.12-2.12a1.2 1.2 0 0 1 1.22-.28l2.4.96c.5.2.82.68.79 1.22l-.12 2.17c-.03.42-.26.8-.62 1.02l-1.06.63a12.3 12.3 0 0 0 3.67 3.67l.63-1.06c.22-.36.6-.59 1.02-.62l2.17-.12c.54-.03 1.02.29 1.22.79l.96 2.4a1.2 1.2 0 0 1-.28 1.22Z"
      fill="currentColor"
    />
  </symbol>

  <symbol id="icon-email" viewBox="0 0 18 24">
    <path
      d="M3 7a2 2 0 0 1 2-2h8a2 2 0 0 1 2 2v10a2 2 0 0 1-2 2H5a2 2 0 0 1-2-2V7Zm2 .5 4 3.2 4-3.2"
      fill="none"
      stroke="currentColor"
      stroke-width="1.8"
      stroke-linecap="round"
      stroke-linejoin="round"
    />
  </symbol>

  <symbol id="icon-check" viewBox="0 0 10 8">
    <path
      d="m1 4 2.5 2.5L9 1"
      fill="none"
      stroke="currentColor"
      stroke-width="1.5"
      stroke-linecap="round"
      stroke-linejoin="round"
    />
  </symbol>
</svg>
